<?xml version="1.0" encoding="UTF-8"?>
<!DOCTYPE svg PUBLIC "-//W3C//DTD SVG 1.1//EN" "http://www.w3.org/Graphics/SVG/1.1/DTD/svg11.dtd">
<svg xmlns="http://www.w3.org/2000/svg" version="1.1" width="474px" height="474px" style="shape-rendering:geometricPrecision; text-rendering:geometricPrecision; image-rendering:optimizeQuality; fill-rule:evenodd; clip-rule:evenodd" xmlns:xlink="http://www.w3.org/1999/xlink">
<g><path style="opacity:1" fill="#fefefe" d="M -0.5,-0.5 C 157.5,-0.5 315.5,-0.5 473.5,-0.5C 473.5,157.5 473.5,315.5 473.5,473.5C 315.5,473.5 157.5,473.5 -0.5,473.5C -0.5,315.5 -0.5,157.5 -0.5,-0.5 Z"/></g>
<g><path style="opacity:1" fill="#111111" d="M 229.5,108.5 C 233.182,108.335 236.848,108.501 240.5,109C 242.263,112.373 244.597,113.039 247.5,111C 249.5,110.333 251.5,110.333 253.5,111C 258.01,113.299 262.677,115.299 267.5,117C 269.184,119.786 268.517,121.62 265.5,122.5C 257.837,118.814 249.837,117.314 241.5,118C 240.167,117.333 239.167,116.333 238.5,115C 234.064,114.419 229.731,114.919 225.5,116.5C 223.061,115.622 222.228,113.955 223,111.5C 225.415,110.868 227.582,109.868 229.5,108.5 Z"/></g>
<g><path style="opacity:1" fill="#121212" d="M 209.5,111.5 C 214.993,112.306 215.66,114.473 211.5,118C 207.167,118.333 202.833,118.667 198.5,119C 196.833,120.667 195.167,122.333 193.5,124C 186.01,124.243 180.677,127.743 177.5,134.5C 172.981,136.588 171.148,135.254 172,130.5C 176.407,123.714 182.573,119.548 190.5,118C 192.5,116.333 194.5,114.667 196.5,113C 201.019,112.825 205.353,112.325 209.5,111.5 Z"/></g>
<g><path style="opacity:1" fill="#121212" d="M 296.5,101.5 C 302.004,101.362 307.338,102.195 312.5,104C 314.647,107.115 317.147,109.948 320,112.5C 320.079,116.358 320.746,120.024 322,123.5C 322.945,137.946 316.611,147.613 303,152.5C 300.681,151.591 300.014,149.925 301,147.5C 314.48,140.755 318.814,130.089 314,115.5C 312.171,113.844 310.837,111.844 310,109.5C 306.629,108.093 303.129,107.593 299.5,108C 295.965,110.767 291.965,112.434 287.5,113C 284.897,117.961 280.897,120.295 275.5,120C 274.941,119.275 274.608,118.442 274.5,117.5C 278.265,114.238 281.932,110.738 285.5,107C 290.206,107.103 293.873,105.269 296.5,101.5 Z"/></g>
<g><path style="opacity:1" fill="#111111" d="M 136.5,121.5 C 140.846,121.334 145.179,121.501 149.5,122C 154.806,125.462 159.806,129.129 164.5,133C 164,134.833 162.833,136 161,136.5C 155.936,134.052 151.103,131.218 146.5,128C 141.593,126.378 137.926,127.712 135.5,132C 130.09,133.743 126.256,137.243 124,142.5C 123.333,146.5 123.333,150.5 124,154.5C 128.265,157.681 131.599,161.681 134,166.5C 134.833,167.333 135.667,168.167 136.5,169C 142.398,170.946 148.398,172.446 154.5,173.5C 155.747,175.006 155.747,176.506 154.5,178C 147.624,178.521 140.958,177.521 134.5,175C 129.319,170.119 124.485,164.953 120,159.5C 114.666,147.094 117.166,136.594 127.5,128C 131.469,127.2 134.469,125.034 136.5,121.5 Z"/></g>
<g><path style="opacity:1" fill="#111111" d="M 222.5,154.5 C 226.516,153.9 230.016,154.9 233,157.5C 232.064,160.611 231.564,163.945 231.5,167.5C 231.833,169.5 232.167,171.5 232.5,173.5C 236.442,174.6 240.442,174.767 244.5,174C 247.4,171.1 250.233,168.267 253,165.5C 257.331,167.53 257.664,170.197 254,173.5C 247.976,180.186 240.476,182.352 231.5,180C 230.5,179.5 229.5,179 228.5,178.5C 219.518,184.68 210.351,185.014 201,179.5C 200.333,177.833 200.333,176.167 201,174.5C 201.725,173.941 202.558,173.608 203.5,173.5C 210.928,179.101 218.095,178.768 225,172.5C 225.498,169.183 225.665,165.85 225.5,162.5C 220.932,162.917 219.432,160.917 221,156.5C 221.717,155.956 222.217,155.289 222.5,154.5 Z"/></g>
<g><path style="opacity:1" fill="#141414" d="M 247.5,154.5 C 251.35,154.701 252.35,156.534 250.5,160C 246.537,160.118 245.537,158.284 247.5,154.5 Z"/></g>
<g><path style="opacity:1" fill="#161616" d="M 287.5,155.5 C 291.548,155.441 294.715,157.108 297,160.5C 297.048,163.329 298.048,165.663 300,167.5C 302.155,173.58 301.989,179.58 299.5,185.5C 297.653,186.83 296.153,186.497 295,184.5C 294.828,180.129 294.328,175.796 293.5,171.5C 292.522,171.023 291.689,170.357 291,169.5C 291.088,165.766 289.755,162.766 287,160.5C 286.36,158.735 286.527,157.068 287.5,155.5 Z"/></g>
<g><path style="opacity:1" fill="#151515" d="M 199.5,160.5 C 201.167,160.5 202.833,160.5 204.5,160.5C 204.985,165.159 203.152,166.492 199,164.5C 198.421,163.072 198.588,161.738 199.5,160.5 Z"/></g>
<g><path style="opacity:1" fill="#0f0f0f" d="M 163.5,177.5 C 164.833,177.5 166.167,177.5 167.5,177.5C 167.653,180.577 166.986,183.411 165.5,186C 166.942,190.022 167.775,194.189 168,198.5C 171.589,201.368 171.256,203.368 167,204.5C 164.849,204.357 163.182,203.357 162,201.5C 161.769,197.416 161.102,193.416 160,189.5C 158.593,184.643 159.76,180.643 163.5,177.5 Z"/></g>
<g><path style="opacity:1" fill="#0f0d0c" d="M 271.5,213.5 C 270.504,213.586 269.671,213.252 269,212.5C 268.374,206.612 270.874,202.612 276.5,200.5C 280.135,200.344 280.468,199.178 277.5,197C 272.156,193.332 266.489,192.666 260.5,195C 258.21,196.777 256.543,198.944 255.5,201.5C 254.325,201.719 253.325,201.386 252.5,200.5C 252.071,197.853 250.738,195.853 248.5,194.5C 244.697,195.104 241.031,195.77 237.5,196.5C 234.231,196.884 231.397,198.218 229,200.5C 228.383,201.449 228.549,202.282 229.5,203C 230.793,203.49 232.127,203.657 233.5,203.5C 234.842,204.793 236.509,205.626 238.5,206C 239.252,206.671 239.586,207.504 239.5,208.5C 239.5,208.833 239.5,209.167 239.5,209.5C 237.039,210.974 234.706,210.807 232.5,209C 228.833,208.333 225.167,208.333 221.5,209C 213.296,210.634 205.296,212.468 197.5,214.5C 199.056,207.136 203.556,204.136 211,205.5C 214.615,204.888 218.115,203.888 221.5,202.5C 222.494,197.336 225.494,193.836 230.5,192C 238.24,189.596 245.74,190.096 253,193.5C 264.205,184.855 274.705,185.688 284.5,196C 288.656,196.414 292.656,197.414 296.5,199C 299.142,202.084 298.309,203.917 294,204.5C 291.192,203.614 288.359,203.447 285.5,204C 284.833,205 284.167,206 283.5,207C 280.774,207.182 278.107,207.682 275.5,208.5C 274.846,210.858 273.513,212.525 271.5,213.5 Z"/></g>
<g><path style="opacity:1" fill="#0f0f0f" d="M 300.5,194.5 C 302.288,194.215 303.955,194.548 305.5,195.5C 313.399,207.888 313.899,220.555 307,233.5C 304.45,237.125 301.95,237.292 299.5,234C 302.647,229.038 304.98,223.705 306.5,218C 304.85,214.077 304.017,209.911 304,205.5C 302.309,202.756 300.809,199.923 299.5,197C 299.743,196.098 300.077,195.265 300.5,194.5 Z"/></g>
<g><path style="opacity:1" fill="#c46968" d="M 276.5,200.5 C 276.586,199.504 276.252,198.671 275.5,198C 267.866,193.952 261.2,195.119 255.5,201.5C 256.543,198.944 258.21,196.777 260.5,195C 266.489,192.666 272.156,193.332 277.5,197C 280.468,199.178 280.135,200.344 276.5,200.5 Z"/></g>
<g><path style="opacity:1" fill="#2a0f0b" d="M 255.5,201.5 C 255.5,201.833 255.5,202.167 255.5,202.5C 254.127,202.657 252.793,202.49 251.5,202C 248.052,197.146 243.386,195.313 237.5,196.5C 241.031,195.77 244.697,195.104 248.5,194.5C 250.738,195.853 252.071,197.853 252.5,200.5C 253.325,201.386 254.325,201.719 255.5,201.5 Z"/></g>
<g><path style="opacity:1" fill="#c46c6a" d="M 237.5,196.5 C 243.386,195.313 248.052,197.146 251.5,202C 252.793,202.49 254.127,202.657 255.5,202.5C 253.712,203.622 251.712,203.789 249.5,203C 247.806,199.084 244.806,197.584 240.5,198.5C 237.408,198.507 234.408,199.007 231.5,200C 231.043,200.414 230.709,200.914 230.5,201.5C 231.602,202.176 232.602,202.842 233.5,203.5C 232.127,203.657 230.793,203.49 229.5,203C 228.549,202.282 228.383,201.449 229,200.5C 231.397,198.218 234.231,196.884 237.5,196.5 Z"/></g>
<g><path style="opacity:1" fill="#f46b65" d="M 276.5,200.5 C 270.874,202.612 268.374,206.612 269,212.5C 269.671,213.252 270.504,213.586 271.5,213.5C 271.5,216.167 271.5,218.833 271.5,221.5C 270.167,221.5 268.833,221.5 267.5,221.5C 268.043,220.258 268.377,218.925 268.5,217.5C 267.079,213.675 266.079,209.675 265.5,205.5C 266.412,202.7 268.412,201.367 271.5,201.5C 271.5,200.167 271.5,198.833 271.5,197.5C 268.552,197.223 265.719,197.556 263,198.5C 261.323,201.853 259.157,204.853 256.5,207.5C 255.526,209.743 255.192,212.076 255.5,214.5C 254.5,214.5 253.5,214.5 252.5,214.5C 253.205,211.756 253.205,209.089 252.5,206.5C 248.792,202.995 244.459,201.828 239.5,203C 241.739,204.31 243.406,206.143 244.5,208.5C 242.833,208.5 241.167,208.5 239.5,208.5C 239.586,207.504 239.252,206.671 238.5,206C 236.509,205.626 234.842,204.793 233.5,203.5C 232.602,202.842 231.602,202.176 230.5,201.5C 230.709,200.914 231.043,200.414 231.5,200C 234.408,199.007 237.408,198.507 240.5,198.5C 244.806,197.584 247.806,199.084 249.5,203C 251.712,203.789 253.712,203.622 255.5,202.5C 255.5,202.167 255.5,201.833 255.5,201.5C 261.2,195.119 267.866,193.952 275.5,198C 276.252,198.671 276.586,199.504 276.5,200.5 Z"/></g>
<g><path style="opacity:1" fill="#121212" d="M 163.5,275.5 C 157.237,278.927 154.903,276.927 156.5,269.5C 150.215,268.84 143.882,269.006 137.5,270C 135.82,270.347 134.82,271.347 134.5,273C 138.415,279.104 144.082,282.437 151.5,283C 154.401,286.549 156.068,286.049 156.5,281.5C 158.167,281.5 159.833,281.5 161.5,281.5C 161.316,290.765 161.316,300.265 161.5,310C 160.907,313.151 160.407,316.318 160,319.5C 158.612,320.554 157.112,320.72 155.5,320C 154.248,312.557 154.248,305.057 155.5,297.5C 155,294.5 154.5,291.5 154,288.5C 152.274,289.576 150.441,289.743 148.5,289C 144.103,287.485 139.77,285.818 135.5,284C 130.207,280.114 128.04,274.947 129,268.5C 130.637,266.19 132.804,264.69 135.5,264C 142.928,263.144 150.262,262.644 157.5,262.5C 158.614,259.095 159.281,255.595 159.5,252C 158.567,248.366 157.567,244.699 156.5,241C 157.258,237.146 158.591,233.479 160.5,230C 156.65,224.5 156.817,219 161,213.5C 163.839,210.591 166.006,210.925 167.5,214.5C 166.099,216.808 165.099,219.308 164.5,222C 165.733,224.402 166.733,226.902 167.5,229.5C 166,233.341 164.333,237.174 162.5,241C 164.888,244.061 165.888,247.561 165.5,251.5C 164.176,259.445 163.509,267.445 163.5,275.5 Z"/></g>
<g><path style="opacity:1" fill="#d76c69" d="M 239.5,208.5 C 241.167,208.5 242.833,208.5 244.5,208.5C 247.205,212.985 248.538,217.985 248.5,223.5C 247.25,223.423 246.417,222.756 246,221.5C 245.667,218.5 245.333,215.5 245,212.5C 243.556,210.845 241.722,210.178 239.5,210.5C 239.5,210.167 239.5,209.833 239.5,209.5C 239.5,209.167 239.5,208.833 239.5,208.5 Z"/></g>
<g><path style="opacity:1" fill="#fc6c5f" d="M 267.5,221.5 C 266.504,221.414 265.671,221.748 265,222.5C 264.774,225.095 264.274,227.595 263.5,230C 264.476,233.25 265.31,236.417 266,239.5C 262.82,241.959 259.32,243.959 255.5,245.5C 251.487,244.643 248.487,242.476 246.5,239C 248.959,235.748 250.292,232.082 250.5,228C 250.431,226.014 249.765,224.514 248.5,223.5C 248.538,217.985 247.205,212.985 244.5,208.5C 243.406,206.143 241.739,204.31 239.5,203C 244.459,201.828 248.792,202.995 252.5,206.5C 253.205,209.089 253.205,211.756 252.5,214.5C 253.5,214.5 254.5,214.5 255.5,214.5C 255.192,212.076 255.526,209.743 256.5,207.5C 259.157,204.853 261.323,201.853 263,198.5C 265.719,197.556 268.552,197.223 271.5,197.5C 271.5,198.833 271.5,200.167 271.5,201.5C 268.412,201.367 266.412,202.7 265.5,205.5C 266.079,209.675 267.079,213.675 268.5,217.5C 268.377,218.925 268.043,220.258 267.5,221.5 Z"/></g>
<g><path style="opacity:1" fill="#100d0d" d="M 239.5,210.5 C 241.722,210.178 243.556,210.845 245,212.5C 245.333,215.5 245.667,218.5 246,221.5C 246.417,222.756 247.25,223.423 248.5,223.5C 249.126,229.799 246.793,234.632 241.5,238C 244.8,240.992 248.134,243.992 251.5,247C 257.139,247.352 262.139,245.685 266.5,242C 267.685,240.647 269.019,239.48 270.5,238.5C 269.05,237.15 268.383,235.484 268.5,233.5C 268.368,230.43 268.701,227.43 269.5,224.5C 270.167,224.5 270.833,224.5 271.5,224.5C 272.132,227.362 273.132,230.196 274.5,233C 280.842,237.691 287.842,239.691 295.5,239C 297.14,241.776 296.473,243.776 293.5,245C 290.5,245.667 287.5,245.667 284.5,245C 282.29,243.261 279.79,242.094 277,241.5C 270.938,247.864 263.605,251.864 255,253.5C 247.457,251.554 241.124,247.554 236,241.5C 230.781,244.018 225.281,245.852 219.5,247C 217.5,247.667 215.5,247.667 213.5,247C 212.167,245.333 212.167,243.667 213.5,242C 218.765,240.523 224.099,239.356 229.5,238.5C 233.541,235.39 237.707,232.39 242,229.5C 242.628,226.756 241.628,224.756 239,223.5C 238.833,222.5 238.667,221.5 238.5,220.5C 239.21,217.098 239.543,213.765 239.5,210.5 Z"/></g>
<g><path style="opacity:1" fill="#2c0502" d="M 269.5,224.5 C 268.701,227.43 268.368,230.43 268.5,233.5C 266.615,231.205 266.115,228.538 267,225.5C 267.671,224.748 268.504,224.414 269.5,224.5 Z"/></g>
<g><path style="opacity:1" fill="#dd7168" d="M 267.5,221.5 C 268.833,221.5 270.167,221.5 271.5,221.5C 271.5,222.5 271.5,223.5 271.5,224.5C 270.833,224.5 270.167,224.5 269.5,224.5C 268.504,224.414 267.671,224.748 267,225.5C 266.115,228.538 266.615,231.205 268.5,233.5C 268.383,235.484 269.05,237.15 270.5,238.5C 269.019,239.48 267.685,240.647 266.5,242C 262.139,245.685 257.139,247.352 251.5,247C 248.134,243.992 244.8,240.992 241.5,238C 246.793,234.632 249.126,229.799 248.5,223.5C 249.765,224.514 250.431,226.014 250.5,228C 250.292,232.082 248.959,235.748 246.5,239C 248.487,242.476 251.487,244.643 255.5,245.5C 259.32,243.959 262.82,241.959 266,239.5C 265.31,236.417 264.476,233.25 263.5,230C 264.274,227.595 264.774,225.095 265,222.5C 265.671,221.748 266.504,221.414 267.5,221.5 Z"/></g>
<g><path style="opacity:1" fill="#161616" d="M 302.5,248.5 C 304.722,248.178 306.556,248.845 308,250.5C 310.002,254.158 311.502,257.991 312.5,262C 312.307,264.504 311.641,266.837 310.5,269C 310.993,271.819 312.16,274.319 314,276.5C 314.363,283.843 314.863,291.177 315.5,298.5C 314.931,302.978 313.765,307.311 312,311.5C 308.718,312.911 306.884,311.745 306.5,308C 307.94,304.621 308.94,301.121 309.5,297.5C 308.006,290.598 307.173,283.598 307,276.5C 306,275.5 305,274.5 304,273.5C 303.331,269.352 303.831,265.352 305.5,261.5C 305.033,258.852 303.866,256.519 302,254.5C 301.322,252.402 301.489,250.402 302.5,248.5 Z"/></g>
<g><path style="opacity:1" fill="#eeeeee" d="M 163.5,275.5 C 162.833,277.5 162.167,279.5 161.5,281.5C 159.833,281.5 158.167,281.5 156.5,281.5C 156.068,286.049 154.401,286.549 151.5,283C 144.082,282.437 138.415,279.104 134.5,273C 134.82,271.347 135.82,270.347 137.5,270C 143.882,269.006 150.215,268.84 156.5,269.5C 154.903,276.927 157.237,278.927 163.5,275.5 Z"/></g>
<g><path style="opacity:1" fill="#0e0e0e" d="M 235.5,301.5 C 240.034,301.267 244.368,302.1 248.5,304C 253,307.167 257.5,310.333 262,313.5C 264.645,317.936 263.478,319.769 258.5,319C 252.858,314.265 246.692,310.432 240,307.5C 231.785,309.017 223.951,311.517 216.5,315C 214.568,317.537 212.901,320.204 211.5,323C 207.014,323.244 205.514,321.077 207,316.5C 209.167,314.333 211.333,312.167 213.5,310C 220.583,306.283 227.916,303.449 235.5,301.5 Z"/></g>
<g><path style="opacity:1" fill="#151515" d="M 264.5,317.5 C 271.704,318.171 278.87,319.171 286,320.5C 289.7,318.817 293.533,317.983 297.5,318C 298.833,319.667 298.833,321.333 297.5,323C 295.167,324 292.833,325 290.5,326C 282.509,326.001 274.509,325.668 266.5,325C 263.281,323.297 262.614,320.797 264.5,317.5 Z"/></g>
<g><path style="opacity:1" fill="#141414" d="M 196.5,319.5 C 201.51,318.91 203.176,320.91 201.5,325.5C 198.302,326.424 195.135,327.424 192,328.5C 186.23,328.349 180.397,328.182 174.5,328C 171.681,326.374 168.681,326.207 165.5,327.5C 161.647,327.28 160.647,325.447 162.5,322C 163.5,321.667 164.5,321.333 165.5,321C 174.422,321.245 183.255,321.745 192,322.5C 193.666,321.652 195.166,320.652 196.5,319.5 Z"/></g>
</svg>
