<?xml version="1.0" encoding="UTF-8"?>
<!--Generator: Apple Native CoreSVG 326-->
<!DOCTYPE svg
PUBLIC "-//W3C//DTD SVG 1.1//EN"
       "http://www.w3.org/Graphics/SVG/1.1/DTD/svg11.dtd">
<svg version="1.1" xmlns="http://www.w3.org/2000/svg" xmlns:xlink="http://www.w3.org/1999/xlink" viewBox="0 0 55.6406 49.3828">
 <g>
  <rect height="49.3828" opacity="0" width="55.6406" x="0" y="0"/>
  <path d="M19.0547 37.9922L46.4062 37.9922C47.3203 37.9922 48.1172 37.2422 48.1172 36.2344C48.1172 35.2266 47.3203 34.4766 46.4062 34.4766L19.4531 34.4766C18.1172 34.4766 17.2969 33.5391 17.0859 32.1094L13.2422 6.02344C13.0078 4.21875 12.3516 3.30469 9.96094 3.30469L1.73438 3.30469C0.796875 3.30469 0 4.125 0 5.0625C0 6.02344 0.796875 6.84375 1.73438 6.84375L9.65625 6.84375L13.4062 32.5781C13.8984 35.9062 15.6562 37.9922 19.0547 37.9922ZM14.7422 29.6484L46.4531 29.6484C49.875 29.6484 51.6328 27.5391 52.125 24.1875L54 11.7891C54.0469 11.4844 54.0938 11.1094 54.0938 10.8984C54.0938 9.77344 53.25 9 51.9609 9L12.7031 9L12.7266 12.5391L50.1094 12.5391L48.4453 23.7656C48.2578 25.2188 47.4844 26.1328 46.1016 26.1328L14.6953 26.1328ZM20.9062 49.3828C23.0156 49.3828 24.7031 47.7188 24.7031 45.5859C24.7031 43.4766 23.0156 41.7891 20.9062 41.7891C18.7734 41.7891 17.0859 43.4766 17.0859 45.5859C17.0859 47.7188 18.7734 49.3828 20.9062 49.3828ZM42.8203 49.3828C44.9531 49.3828 46.6406 47.7188 46.6406 45.5859C46.6406 43.4766 44.9531 41.7891 42.8203 41.7891C40.7109 41.7891 39 43.4766 39 45.5859C39 47.7188 40.7109 49.3828 42.8203 49.3828Z" fill="black" fill-opacity="0.85"/>
 </g>
</svg>
