<?xml version="1.0" encoding="UTF-8"?>
<!--Generator: Apple Native CoreSVG 326-->
<!DOCTYPE svg
PUBLIC "-//W3C//DTD SVG 1.1//EN"
       "http://www.w3.org/Graphics/SVG/1.1/DTD/svg11.dtd">
<svg version="1.1" xmlns="http://www.w3.org/2000/svg" xmlns:xlink="http://www.w3.org/1999/xlink" viewBox="0 0 46.1484 46.2422">
 <g>
  <rect height="46.2422" opacity="0" width="46.1484" x="0" y="0"/>
  <path d="M0 18.7031C0 29.0156 8.39062 37.4062 18.7031 37.4062C22.7812 37.4062 26.5078 36.0938 29.5781 33.8906L41.1094 45.4453C41.6484 45.9844 42.3516 46.2422 43.1016 46.2422C44.6953 46.2422 45.7969 45.0469 45.7969 43.4766C45.7969 42.7266 45.5156 42.0469 45.0234 41.5547L33.5625 30.0234C35.9766 26.8828 37.4062 22.9688 37.4062 18.7031C37.4062 8.39062 29.0156 0 18.7031 0C8.39062 0 0 8.39062 0 18.7031ZM4.00781 18.7031C4.00781 10.5938 10.5938 4.00781 18.7031 4.00781C26.8125 4.00781 33.3984 10.5938 33.3984 18.7031C33.3984 26.8125 26.8125 33.3984 18.7031 33.3984C10.5938 33.3984 4.00781 26.8125 4.00781 18.7031Z" fill="black" fill-opacity="0.85"/>
 </g>
</svg>
