<?xml version="1.0" encoding="UTF-8"?>
<!--Generator: Apple Native CoreSVG 326-->
<!DOCTYPE svg
PUBLIC "-//W3C//DTD SVG 1.1//EN"
       "http://www.w3.org/Graphics/SVG/1.1/DTD/svg11.dtd">
<svg version="1.1" xmlns="http://www.w3.org/2000/svg" xmlns:xlink="http://www.w3.org/1999/xlink" viewBox="0 0 41.2969 43.4297">
 <g>
  <rect height="43.4297" opacity="0" width="41.2969" x="0" y="0"/>
  <path d="M5.74219 43.4062L35.2031 43.4062C39.0938 43.4062 40.9453 42.2344 40.9453 39.6562C40.9453 33.5156 33.1875 24.6328 20.4844 24.6328C7.75781 24.6328 0 33.5156 0 39.6562C0 42.2344 1.85156 43.4062 5.74219 43.4062ZM4.64062 39.8672C4.03125 39.8672 3.77344 39.7031 3.77344 39.2109C3.77344 35.3438 9.72656 28.1719 20.4844 28.1719C31.2188 28.1719 37.1719 35.3438 37.1719 39.2109C37.1719 39.7031 36.9375 39.8672 36.3281 39.8672ZM20.4844 21.7031C26.0625 21.7031 30.6094 16.7578 30.6094 10.7109C30.6094 4.71094 26.0859 0 20.4844 0C14.9297 0 10.3594 4.80469 10.3594 10.7578C10.3594 16.7812 14.9062 21.7031 20.4844 21.7031ZM20.4844 18.1641C17.0625 18.1641 14.1328 14.9062 14.1328 10.7578C14.1328 6.67969 17.0156 3.53906 20.4844 3.53906C23.9766 3.53906 26.8359 6.60938 26.8359 10.7109C26.8359 14.8594 23.9297 18.1641 20.4844 18.1641Z" fill="black" fill-opacity="0.85"/>
 </g>
</svg>
